<?xml version="1.0" encoding="UTF-8" standalone="no"?><!DOCTYPE svg PUBLIC "-//W3C//DTD SVG 1.1//EN" "http://www.w3.org/Graphics/SVG/1.1/DTD/svg11.dtd"><svg width="100%" height="100%" viewBox="0 0 50 50" version="1.1" xmlns="http://www.w3.org/2000/svg" xmlns:xlink="http://www.w3.org/1999/xlink" xml:space="preserve" xmlns:serif="http://www.serif.com/" style="fill-rule:evenodd;clip-rule:evenodd;stroke-linecap:round;stroke-linejoin:round;stroke-miterlimit:1.5;"><g><circle cx="25" cy="25" r="25" style="fill:#fff;"/><path d="M23.922,20.511c0.346,0 3.131,-0.084 4.652,0.097c2.393,0.285 4.592,1.464 6.098,3.359c2.163,2.723 2.519,6.536 0.911,9.625c-0.431,0.827 -0.995,1.594 -1.657,2.252c-0.666,0.663 -1.439,1.226 -2.279,1.648c-1.234,0.619 -2.7,0.939 -5.84,0.939l-7.24,0" style="fill:none;stroke:#3c56a6;stroke-width:3.78px;"/><path d="M26.038,29.401c-1.533,0.008 -3.075,0.135 -4.597,-0.046c-2.393,-0.285 -4.591,-1.464 -6.097,-3.359c-2.163,-2.723 -2.519,-6.537 -0.911,-9.625c0.431,-0.827 0.995,-1.594 1.656,-2.252c0.667,-0.663 1.439,-1.226 2.28,-1.648c1.234,-0.619 2.699,-0.939 5.84,-0.939l6.73,-0" style="fill:none;stroke:#3c56a6;stroke-width:3.78px;"/></g></svg>