<?xml version="1.0" encoding="UTF-8" standalone="no"?>
<!DOCTYPE svg PUBLIC "-//W3C//DTD SVG 1.1//EN" "http://www.w3.org/Graphics/SVG/1.1/DTD/svg11.dtd">
<svg width="100%" height="100%" viewBox="0 0 200 200" version="1.1" xmlns="http://www.w3.org/2000/svg" xmlns:xlink="http://www.w3.org/1999/xlink" xml:space="preserve" xmlns:serif="http://www.serif.com/" style="fill-rule:evenodd;clip-rule:evenodd;stroke-linecap:round;stroke-linejoin:round;stroke-miterlimit:1.5;">
    <g transform="matrix(1,0,0,1,-975,-1210.19)">
        <g transform="matrix(0.242094,0,0,0.242094,766.33,986.62)">
            <g transform="matrix(1,0,0,1,41.2312,45.2322)">
                <circle cx="1233.77" cy="1291.3" r="413.063" style="fill:white;"/>
            </g>
            <g transform="matrix(-0.665376,-8.14851e-17,8.14851e-17,-0.665376,1657.01,2092.05)">
                <path d="M600.9,1246.93C592.313,1246.93 523.147,1249.03 485.366,1244.53C425.945,1237.45 371.352,1208.18 333.961,1161.11C280.247,1093.51 271.401,998.813 311.336,922.124C322.039,901.571 336.038,882.534 352.471,866.196C369.02,849.743 388.199,835.756 409.071,825.283C439.717,809.905 476.109,801.954 554.091,801.954L733.865,801.954" style="fill:none;stroke:rgb(60,86,166);stroke-width:93.93px;"/>
            </g>
            <g transform="matrix(0.665376,0,0,0.665376,893.247,580.401)">
                <path d="M599.506,1245.67C561.458,1245.87 523.147,1249.03 485.366,1244.53C425.945,1237.45 371.352,1208.18 333.961,1161.11C280.247,1093.51 271.401,998.813 311.336,922.124C322.039,901.571 336.038,882.534 352.471,866.196C369.02,849.743 388.199,835.756 409.071,825.283C439.717,809.905 476.109,801.954 554.091,801.954L721.225,801.954" style="fill:none;stroke:rgb(60,86,166);stroke-width:93.93px;"/>
            </g>
        </g>
    </g>
</svg>
