<?xml version="1.0" encoding="UTF-8" standalone="no"?>
<!DOCTYPE svg PUBLIC "-//W3C//DTD SVG 1.1//EN" "http://www.w3.org/Graphics/SVG/1.1/DTD/svg11.dtd">
<svg width="100%" height="100%" viewBox="0 0 84 84" version="1.1" xmlns="http://www.w3.org/2000/svg" xmlns:xlink="http://www.w3.org/1999/xlink" xml:space="preserve" xmlns:serif="http://www.serif.com/" style="fill-rule:evenodd;clip-rule:evenodd;stroke-linejoin:round;stroke-miterlimit:2;">
    <g transform="matrix(4.16667,0,0,4.16667,0,0)">
        <g transform="matrix(0.833333,0,0,0.833333,0,0)">
            <g transform="matrix(1.2,0,0,1.2,0,0)">
                <circle cx="10" cy="10" r="10" style="fill:rgb(84,86,90);"/>
            </g>
            <g transform="matrix(0.628571,0,0,0.628571,4.45714,4.45714)">
                <rect x="2" y="8.5" width="5" height="14" style="fill:white;fill-rule:nonzero;"/>
                <path d="M2,4C2,5.371 3.12,6.5 4.48,6.5C5.84,6.5 6.96,5.371 6.96,4C6.96,2.629 5.84,1.5 4.48,1.5C3.12,1.5 2,2.629 2,4Z" style="fill:white;fill-rule:nonzero;"/>
                <path d="M18.5,22.5L21.5,22.5C21.774,22.5 22,22.274 22,22L22,13.6C22,9.83 19.87,8 16.89,8C15.702,7.957 14.549,8.418 13.72,9.27C13.642,9.36 13.529,9.412 13.41,9.412C13.185,9.412 13,9.227 13,9.002C13,9.001 13,9.001 13,9C13,8.726 12.774,8.5 12.5,8.5L9.5,8.5C9.226,8.5 9,8.726 9,9L9,22C9,22.274 9.226,22.5 9.5,22.5L12.5,22.5C12.774,22.5 13,22.274 13,22L13,14.5C13,13.129 14.129,12 15.5,12C16.871,12 18,13.129 18,14.5L18,22C18,22.274 18.226,22.5 18.5,22.5Z" style="fill:white;fill-rule:nonzero;"/>
            </g>
        </g>
    </g>
</svg>
