<svg viewBox="0 0 30 30" height="30" width="30" xmlns="http://www.w3.org/2000/svg"><g transform="matrix(2.142857142857143,0,0,2.142857142857143,0,0)"><path d="M13,3H1A1,1,0,0,1,1,1H13a1,1,0,0,1,0,2Z" fill="#EF9C11" stroke="none" stroke-linecap="round" stroke-linejoin="round" stroke-width="0"></path><path d="M13,8H1A1,1,0,0,1,1,6H13a1,1,0,0,1,0,2Z" fill="#EF9C11" stroke="none" stroke-linecap="round" stroke-linejoin="round" stroke-width="0"></path><path d="M13,13H1a1,1,0,0,1,0-2H13a1,1,0,0,1,0,2Z" fill="#EF9C11" stroke="none" stroke-linecap="round" stroke-linejoin="round" stroke-width="0"></path></g></svg>