<?xml version="1.0" encoding="UTF-8" standalone="no"?>
<!DOCTYPE svg PUBLIC "-//W3C//DTD SVG 1.1//EN" "http://www.w3.org/Graphics/SVG/1.1/DTD/svg11.dtd">
<svg width="100%" height="100%" viewBox="0 0 84 84" version="1.1" xmlns="http://www.w3.org/2000/svg" xmlns:xlink="http://www.w3.org/1999/xlink" xml:space="preserve" xmlns:serif="http://www.serif.com/" style="fill-rule:evenodd;clip-rule:evenodd;stroke-linejoin:round;stroke-miterlimit:2;">
    <g transform="matrix(4.16667,0,0,4.16667,0,0)">
        <g transform="matrix(0.833333,0,0,0.833333,0,0)">
            <g transform="matrix(1.2,0,0,1.2,0,0)">
                <circle cx="10" cy="10" r="10" style="fill:rgb(239,156,17);"/>
            </g>
        </g>
        <g transform="matrix(0.833333,0,0,0.833333,0,0)">
            <g transform="matrix(0.6504,0,0,0.6504,4.19519,4.20064)">
                <path d="M24,12C24,12 24,11.999 24,11.999C24,5.416 18.583,-0.001 12,-0.001C10.002,-0.001 8.036,0.498 6.28,1.45L6.23,1.45C2.398,3.573 0.009,7.619 0,12C-0.001,14.764 0.957,17.444 2.71,19.58C4.988,22.366 8.402,23.984 12,23.984C18.577,23.984 23.991,18.577 24,12ZM20.07,6.12C21.255,7.727 21.927,9.655 22,11.65C21.12,11.56 20.18,11.51 19.38,11.51C17.982,11.516 16.586,11.643 15.21,11.89C14.94,11.2 14.65,10.52 14.32,9.89C16.408,8.917 18.345,7.647 20.07,6.12ZM18.74,4.64C17.114,6.057 15.288,7.227 13.32,8.11C12.052,6.044 10.477,4.183 8.65,2.59C12.118,1.322 16.018,2.095 18.74,4.59L18.74,4.64ZM6.68,3.55C8.54,5.047 10.145,6.837 11.43,8.85C9.149,9.618 6.757,10.007 4.35,10C3.64,10 2.93,10 2.22,9.89C2.794,7.264 4.402,4.977 6.68,3.55ZM2,11.92C2.78,12 3.56,12.05 4.34,12.05C7.098,12.046 9.835,11.566 12.43,10.63C12.717,11.19 12.977,11.76 13.21,12.34C9.662,13.28 6.379,15.029 3.62,17.45C2.544,15.808 1.98,13.883 2,11.92ZM4.87,19C7.45,16.718 10.535,15.08 13.87,14.22C14.495,16.292 14.811,18.445 14.81,20.61L14.81,21.61C11.274,22.652 7.438,21.644 4.87,19ZM16.87,20.76L16.87,20.61C16.863,18.307 16.526,16.017 15.87,13.81C17.027,13.617 18.197,13.517 19.37,13.51C20.14,13.51 21.03,13.56 21.86,13.65C21.356,16.664 19.497,19.286 16.82,20.76L16.87,20.76Z" style="fill:white;fill-rule:nonzero;"/>
            </g>
        </g>
    </g>
</svg>
