<?xml version="1.0" encoding="UTF-8" standalone="no"?>
<!DOCTYPE svg PUBLIC "-//W3C//DTD SVG 1.1//EN" "http://www.w3.org/Graphics/SVG/1.1/DTD/svg11.dtd">
<svg width="100%" height="100%" viewBox="0 0 84 84" version="1.1" xmlns="http://www.w3.org/2000/svg" xmlns:xlink="http://www.w3.org/1999/xlink" xml:space="preserve" xmlns:serif="http://www.serif.com/" style="fill-rule:evenodd;clip-rule:evenodd;stroke-linejoin:round;stroke-miterlimit:2;">
    <g transform="matrix(4.16667,0,0,4.16667,0,0)">
        <g transform="matrix(0.833333,0,0,0.833333,0,0)">
            <g transform="matrix(1.2,0,0,1.2,0,0)">
                <circle cx="10" cy="10" r="10" style="fill:rgb(239,156,17);"/>
            </g>
        </g>
        <g transform="matrix(0.833333,0,0,0.833333,-0.185599,-0.183865)">
            <g transform="matrix(0.600037,0,0,0.600037,3.80108,5.02065)">
                <path d="M23.82,1.116C23.677,0.997 23.48,0.967 23.308,1.038L0.308,10.538C0.122,10.616 0,10.798 0,10.999C0,11.205 0.127,11.39 0.318,11.465L6.65,13.924C6.805,13.985 6.981,13.964 7.118,13.868L15.518,7.894C15.603,7.832 15.706,7.799 15.811,7.799C16.085,7.799 16.311,8.025 16.311,8.299C16.311,8.436 16.255,8.568 16.155,8.662L9.155,15.407C9.057,15.501 9.002,15.631 9.002,15.767L9.002,22.5C9.003,22.774 9.228,22.999 9.502,22.999C9.679,22.999 9.843,22.905 9.933,22.752L13.1,17.327C13.168,17.211 13.319,17.169 13.437,17.234L19.263,20.434C19.337,20.475 19.42,20.496 19.504,20.496C19.739,20.496 19.943,20.331 19.993,20.102L23.993,1.602C24.028,1.421 23.962,1.234 23.82,1.116Z" style="fill:white;fill-rule:nonzero;"/>
            </g>
        </g>
    </g>
</svg>
